<mxfile host="app.diagrams.net" modified="2021-07-12T13:50:48.213Z" agent="5.0 (Macintosh; Intel Mac OS X 10_15_7) AppleWebKit/537.36 (KHTML, like Gecko) Chrome/91.0.4472.114 Safari/537.36" etag="1NrHKWB88zI3rTBs7KKv" version="14.8.5" type="github">
  <diagram id="R2lEEEUBdFMjLlhIrx00" name="DB ver.1">
    <mxGraphModel dx="1426" dy="769" grid="1" gridSize="10" guides="1" tooltips="1" connect="1" arrows="1" fold="1" page="1" pageScale="1" pageWidth="850" pageHeight="1100" background="#283618" math="0" shadow="0" extFonts="Permanent Marker^https://fonts.googleapis.com/css?family=Permanent+Marker">
      <root>
        <mxCell id="0" />
        <mxCell id="1" parent="0" />
        <mxCell id="C-vyLk0tnHw3VtMMgP7b-13" value="Murmur" style="shape=table;startSize=30;container=1;collapsible=1;childLayout=tableLayout;fixedRows=1;rowLines=0;fontStyle=1;align=center;resizeLast=1;fillColor=#BC6C25;strokeColor=#DDA15E;fontColor=#FEFAE0;" parent="1" vertex="1">
          <mxGeometry x="390" y="740" width="110" height="310" as="geometry" />
        </mxCell>
        <mxCell id="C-vyLk0tnHw3VtMMgP7b-14" value="" style="shape=partialRectangle;collapsible=0;dropTarget=0;pointerEvents=0;fillColor=none;points=[[0,0.5],[1,0.5]];portConstraint=eastwest;top=0;left=0;right=0;bottom=1;strokeColor=#DDA15E;fontColor=#FEFAE0;" parent="C-vyLk0tnHw3VtMMgP7b-13" vertex="1">
          <mxGeometry y="30" width="110" height="30" as="geometry" />
        </mxCell>
        <mxCell id="C-vyLk0tnHw3VtMMgP7b-15" value="PK" style="shape=partialRectangle;overflow=hidden;connectable=0;fillColor=none;top=0;left=0;bottom=0;right=0;fontStyle=1;strokeColor=#DDA15E;fontColor=#FEFAE0;" parent="C-vyLk0tnHw3VtMMgP7b-14" vertex="1">
          <mxGeometry width="30" height="30" as="geometry" />
        </mxCell>
        <mxCell id="C-vyLk0tnHw3VtMMgP7b-16" value="id" style="shape=partialRectangle;overflow=hidden;connectable=0;fillColor=none;top=0;left=0;bottom=0;right=0;align=left;spacingLeft=6;fontStyle=5;strokeColor=#DDA15E;fontColor=#FEFAE0;" parent="C-vyLk0tnHw3VtMMgP7b-14" vertex="1">
          <mxGeometry x="30" width="80" height="30" as="geometry" />
        </mxCell>
        <mxCell id="StOUMhEdWDE5Y-haD1ef-85" style="edgeStyle=orthogonalEdgeStyle;curved=0;rounded=1;sketch=0;orthogonalLoop=1;jettySize=auto;html=1;entryX=0;entryY=0.5;entryDx=0;entryDy=0;fontColor=#FFF2CC;endArrow=blockThin;endFill=1;strokeColor=#DDA15E;fillColor=#BC6C25;" edge="1" parent="C-vyLk0tnHw3VtMMgP7b-13" source="StOUMhEdWDE5Y-haD1ef-78" target="C-vyLk0tnHw3VtMMgP7b-14">
          <mxGeometry relative="1" as="geometry">
            <Array as="points">
              <mxPoint x="-40" y="195" />
              <mxPoint x="-40" y="45" />
            </Array>
          </mxGeometry>
        </mxCell>
        <mxCell id="StOUMhEdWDE5Y-haD1ef-112" style="shape=partialRectangle;collapsible=0;dropTarget=0;pointerEvents=0;fillColor=none;points=[[0,0.5],[1,0.5]];portConstraint=eastwest;top=0;left=0;right=0;bottom=0;strokeColor=#DDA15E;fontColor=#FEFAE0;" vertex="1" parent="C-vyLk0tnHw3VtMMgP7b-13">
          <mxGeometry y="60" width="110" height="30" as="geometry" />
        </mxCell>
        <mxCell id="StOUMhEdWDE5Y-haD1ef-113" value="FK" style="shape=partialRectangle;overflow=hidden;connectable=0;fillColor=none;top=0;left=0;bottom=0;right=0;strokeColor=#DDA15E;fontColor=#FEFAE0;" vertex="1" parent="StOUMhEdWDE5Y-haD1ef-112">
          <mxGeometry width="30" height="30" as="geometry" />
        </mxCell>
        <mxCell id="StOUMhEdWDE5Y-haD1ef-114" value="user_id" style="shape=partialRectangle;overflow=hidden;connectable=0;fillColor=none;top=0;left=0;bottom=0;right=0;align=left;spacingLeft=6;strokeColor=#DDA15E;fontColor=#FEFAE0;" vertex="1" parent="StOUMhEdWDE5Y-haD1ef-112">
          <mxGeometry x="30" width="80" height="30" as="geometry" />
        </mxCell>
        <mxCell id="C-vyLk0tnHw3VtMMgP7b-17" value="" style="shape=partialRectangle;collapsible=0;dropTarget=0;pointerEvents=0;fillColor=none;points=[[0,0.5],[1,0.5]];portConstraint=eastwest;top=0;left=0;right=0;bottom=0;strokeColor=#DDA15E;fontColor=#FEFAE0;" parent="C-vyLk0tnHw3VtMMgP7b-13" vertex="1">
          <mxGeometry y="90" width="110" height="30" as="geometry" />
        </mxCell>
        <mxCell id="C-vyLk0tnHw3VtMMgP7b-18" value="" style="shape=partialRectangle;overflow=hidden;connectable=0;fillColor=none;top=0;left=0;bottom=0;right=0;strokeColor=#DDA15E;fontColor=#FEFAE0;" parent="C-vyLk0tnHw3VtMMgP7b-17" vertex="1">
          <mxGeometry width="30" height="30" as="geometry" />
        </mxCell>
        <mxCell id="C-vyLk0tnHw3VtMMgP7b-19" value="contents" style="shape=partialRectangle;overflow=hidden;connectable=0;fillColor=none;top=0;left=0;bottom=0;right=0;align=left;spacingLeft=6;strokeColor=#DDA15E;fontColor=#FEFAE0;" parent="C-vyLk0tnHw3VtMMgP7b-17" vertex="1">
          <mxGeometry x="30" width="80" height="30" as="geometry" />
        </mxCell>
        <mxCell id="C-vyLk0tnHw3VtMMgP7b-20" value="" style="shape=partialRectangle;collapsible=0;dropTarget=0;pointerEvents=0;fillColor=none;points=[[0,0.5],[1,0.5]];portConstraint=eastwest;top=0;left=0;right=0;bottom=0;strokeColor=#DDA15E;fontColor=#FEFAE0;" parent="C-vyLk0tnHw3VtMMgP7b-13" vertex="1">
          <mxGeometry y="120" width="110" height="30" as="geometry" />
        </mxCell>
        <mxCell id="C-vyLk0tnHw3VtMMgP7b-21" value="" style="shape=partialRectangle;overflow=hidden;connectable=0;fillColor=none;top=0;left=0;bottom=0;right=0;strokeColor=#DDA15E;fontColor=#FEFAE0;" parent="C-vyLk0tnHw3VtMMgP7b-20" vertex="1">
          <mxGeometry width="30" height="30" as="geometry" />
        </mxCell>
        <mxCell id="C-vyLk0tnHw3VtMMgP7b-22" value="static_item" style="shape=partialRectangle;overflow=hidden;connectable=0;fillColor=none;top=0;left=0;bottom=0;right=0;align=left;spacingLeft=6;strokeColor=#DDA15E;fontColor=#FEFAE0;" parent="C-vyLk0tnHw3VtMMgP7b-20" vertex="1">
          <mxGeometry x="30" width="80" height="30" as="geometry" />
        </mxCell>
        <mxCell id="StOUMhEdWDE5Y-haD1ef-116" style="edgeStyle=orthogonalEdgeStyle;curved=0;rounded=1;sketch=0;orthogonalLoop=1;jettySize=auto;html=1;exitX=0;exitY=0.5;exitDx=0;exitDy=0;entryX=0;entryY=0.5;entryDx=0;entryDy=0;fontColor=#FFF2CC;endArrow=classic;endFill=1;strokeColor=#DDA15E;fillColor=#BC6C25;" edge="1" parent="C-vyLk0tnHw3VtMMgP7b-13" source="StOUMhEdWDE5Y-haD1ef-60" target="C-vyLk0tnHw3VtMMgP7b-14">
          <mxGeometry relative="1" as="geometry" />
        </mxCell>
        <mxCell id="StOUMhEdWDE5Y-haD1ef-60" style="shape=partialRectangle;collapsible=0;dropTarget=0;pointerEvents=0;fillColor=none;points=[[0,0.5],[1,0.5]];portConstraint=eastwest;top=0;left=0;right=0;bottom=0;strokeColor=#DDA15E;fontColor=#FEFAE0;" vertex="1" parent="C-vyLk0tnHw3VtMMgP7b-13">
          <mxGeometry y="150" width="110" height="30" as="geometry" />
        </mxCell>
        <mxCell id="StOUMhEdWDE5Y-haD1ef-61" style="shape=partialRectangle;overflow=hidden;connectable=0;fillColor=none;top=0;left=0;bottom=0;right=0;strokeColor=#DDA15E;fontColor=#FEFAE0;" vertex="1" parent="StOUMhEdWDE5Y-haD1ef-60">
          <mxGeometry width="30" height="30" as="geometry" />
        </mxCell>
        <mxCell id="StOUMhEdWDE5Y-haD1ef-62" value="parent_id" style="shape=partialRectangle;overflow=hidden;connectable=0;fillColor=none;top=0;left=0;bottom=0;right=0;align=left;spacingLeft=6;strokeColor=#DDA15E;fontColor=#FEFAE0;" vertex="1" parent="StOUMhEdWDE5Y-haD1ef-60">
          <mxGeometry x="30" width="80" height="30" as="geometry" />
        </mxCell>
        <mxCell id="StOUMhEdWDE5Y-haD1ef-78" style="shape=partialRectangle;collapsible=0;dropTarget=0;pointerEvents=0;fillColor=none;points=[[0,0.5],[1,0.5]];portConstraint=eastwest;top=0;left=0;right=0;bottom=0;strokeColor=#DDA15E;fontColor=#FEFAE0;" vertex="1" parent="C-vyLk0tnHw3VtMMgP7b-13">
          <mxGeometry y="180" width="110" height="30" as="geometry" />
        </mxCell>
        <mxCell id="StOUMhEdWDE5Y-haD1ef-79" style="shape=partialRectangle;overflow=hidden;connectable=0;fillColor=none;top=0;left=0;bottom=0;right=0;strokeColor=#DDA15E;fontColor=#FEFAE0;" vertex="1" parent="StOUMhEdWDE5Y-haD1ef-78">
          <mxGeometry width="30" height="30" as="geometry" />
        </mxCell>
        <mxCell id="StOUMhEdWDE5Y-haD1ef-80" value="child_id" style="shape=partialRectangle;overflow=hidden;connectable=0;fillColor=none;top=0;left=0;bottom=0;right=0;align=left;spacingLeft=6;strokeColor=#DDA15E;fontColor=#FEFAE0;" vertex="1" parent="StOUMhEdWDE5Y-haD1ef-78">
          <mxGeometry x="30" width="80" height="30" as="geometry" />
        </mxCell>
        <mxCell id="StOUMhEdWDE5Y-haD1ef-63" style="shape=partialRectangle;collapsible=0;dropTarget=0;pointerEvents=0;fillColor=none;points=[[0,0.5],[1,0.5]];portConstraint=eastwest;top=0;left=0;right=0;bottom=0;strokeColor=#DDA15E;fontColor=#FEFAE0;" vertex="1" parent="C-vyLk0tnHw3VtMMgP7b-13">
          <mxGeometry y="210" width="110" height="30" as="geometry" />
        </mxCell>
        <mxCell id="StOUMhEdWDE5Y-haD1ef-64" style="shape=partialRectangle;overflow=hidden;connectable=0;fillColor=none;top=0;left=0;bottom=0;right=0;strokeColor=#DDA15E;fontColor=#FEFAE0;" vertex="1" parent="StOUMhEdWDE5Y-haD1ef-63">
          <mxGeometry width="30" height="30" as="geometry" />
        </mxCell>
        <mxCell id="StOUMhEdWDE5Y-haD1ef-65" value="like" style="shape=partialRectangle;overflow=hidden;connectable=0;fillColor=none;top=0;left=0;bottom=0;right=0;align=left;spacingLeft=6;strokeColor=#DDA15E;fontColor=#FEFAE0;" vertex="1" parent="StOUMhEdWDE5Y-haD1ef-63">
          <mxGeometry x="30" width="80" height="30" as="geometry" />
        </mxCell>
        <mxCell id="StOUMhEdWDE5Y-haD1ef-81" style="shape=partialRectangle;collapsible=0;dropTarget=0;pointerEvents=0;fillColor=none;points=[[0,0.5],[1,0.5]];portConstraint=eastwest;top=0;left=0;right=0;bottom=0;strokeColor=#DDA15E;fontColor=#FEFAE0;" vertex="1" parent="C-vyLk0tnHw3VtMMgP7b-13">
          <mxGeometry y="240" width="110" height="30" as="geometry" />
        </mxCell>
        <mxCell id="StOUMhEdWDE5Y-haD1ef-82" style="shape=partialRectangle;overflow=hidden;connectable=0;fillColor=none;top=0;left=0;bottom=0;right=0;strokeColor=#DDA15E;fontColor=#FEFAE0;" vertex="1" parent="StOUMhEdWDE5Y-haD1ef-81">
          <mxGeometry width="30" height="30" as="geometry" />
        </mxCell>
        <mxCell id="StOUMhEdWDE5Y-haD1ef-83" value="created_at" style="shape=partialRectangle;overflow=hidden;connectable=0;fillColor=none;top=0;left=0;bottom=0;right=0;align=left;spacingLeft=6;strokeColor=#DDA15E;fontColor=#FEFAE0;" vertex="1" parent="StOUMhEdWDE5Y-haD1ef-81">
          <mxGeometry x="30" width="80" height="30" as="geometry" />
        </mxCell>
        <mxCell id="StOUMhEdWDE5Y-haD1ef-87" style="shape=partialRectangle;collapsible=0;dropTarget=0;pointerEvents=0;fillColor=none;points=[[0,0.5],[1,0.5]];portConstraint=eastwest;top=0;left=0;right=0;bottom=0;strokeColor=#DDA15E;fontColor=#FEFAE0;" vertex="1" parent="C-vyLk0tnHw3VtMMgP7b-13">
          <mxGeometry y="270" width="110" height="30" as="geometry" />
        </mxCell>
        <mxCell id="StOUMhEdWDE5Y-haD1ef-88" style="shape=partialRectangle;overflow=hidden;connectable=0;fillColor=none;top=0;left=0;bottom=0;right=0;strokeColor=#DDA15E;fontColor=#FEFAE0;" vertex="1" parent="StOUMhEdWDE5Y-haD1ef-87">
          <mxGeometry width="30" height="30" as="geometry" />
        </mxCell>
        <mxCell id="StOUMhEdWDE5Y-haD1ef-89" value="updated_at" style="shape=partialRectangle;overflow=hidden;connectable=0;fillColor=none;top=0;left=0;bottom=0;right=0;align=left;spacingLeft=6;strokeColor=#DDA15E;fontColor=#FEFAE0;" vertex="1" parent="StOUMhEdWDE5Y-haD1ef-87">
          <mxGeometry x="30" width="80" height="30" as="geometry" />
        </mxCell>
        <mxCell id="StOUMhEdWDE5Y-haD1ef-6" value="" style="group;fontColor=#FEFAE0;" vertex="1" connectable="0" parent="1">
          <mxGeometry x="230" y="350" width="270" height="270" as="geometry" />
        </mxCell>
        <mxCell id="C-vyLk0tnHw3VtMMgP7b-23" value="User" style="shape=table;startSize=30;container=1;collapsible=1;childLayout=tableLayout;fixedRows=1;rowLines=0;fontStyle=1;align=center;resizeLast=1;labelBackgroundColor=none;fillColor=#BC6C25;strokeColor=#DDA15E;fontColor=#FEFAE0;" parent="StOUMhEdWDE5Y-haD1ef-6" vertex="1">
          <mxGeometry width="186.92" height="240" as="geometry">
            <mxRectangle x="80" y="70" width="60" height="30" as="alternateBounds" />
          </mxGeometry>
        </mxCell>
        <mxCell id="C-vyLk0tnHw3VtMMgP7b-24" value="" style="shape=partialRectangle;collapsible=0;dropTarget=0;pointerEvents=0;fillColor=none;points=[[0,0.5],[1,0.5]];portConstraint=eastwest;top=0;left=0;right=0;bottom=1;strokeColor=#DDA15E;fontColor=#FEFAE0;" parent="C-vyLk0tnHw3VtMMgP7b-23" vertex="1">
          <mxGeometry y="30" width="186.92" height="30" as="geometry" />
        </mxCell>
        <mxCell id="C-vyLk0tnHw3VtMMgP7b-25" value="PK" style="shape=partialRectangle;overflow=hidden;connectable=0;fillColor=none;top=0;left=0;bottom=0;right=0;fontStyle=1;strokeColor=#DDA15E;fontColor=#FFF2CC;" parent="C-vyLk0tnHw3VtMMgP7b-24" vertex="1">
          <mxGeometry width="30" height="30" as="geometry" />
        </mxCell>
        <mxCell id="C-vyLk0tnHw3VtMMgP7b-26" value="id" style="shape=partialRectangle;overflow=hidden;connectable=0;fillColor=none;top=0;left=0;bottom=0;right=0;align=left;spacingLeft=6;fontStyle=5;strokeColor=#DDA15E;fontColor=#FFF2CC;" parent="C-vyLk0tnHw3VtMMgP7b-24" vertex="1">
          <mxGeometry x="30" width="156.92" height="30" as="geometry" />
        </mxCell>
        <mxCell id="C-vyLk0tnHw3VtMMgP7b-27" value="" style="shape=partialRectangle;collapsible=0;dropTarget=0;pointerEvents=0;fillColor=none;points=[[0,0.5],[1,0.5]];portConstraint=eastwest;top=0;left=0;right=0;bottom=0;strokeColor=#DDA15E;fontColor=#FEFAE0;" parent="C-vyLk0tnHw3VtMMgP7b-23" vertex="1">
          <mxGeometry y="60" width="186.92" height="30" as="geometry" />
        </mxCell>
        <mxCell id="C-vyLk0tnHw3VtMMgP7b-28" value="" style="shape=partialRectangle;overflow=hidden;connectable=0;fillColor=none;top=0;left=0;bottom=0;right=0;strokeColor=#DDA15E;fontColor=#FEFAE0;" parent="C-vyLk0tnHw3VtMMgP7b-27" vertex="1">
          <mxGeometry width="30" height="30" as="geometry" />
        </mxCell>
        <mxCell id="C-vyLk0tnHw3VtMMgP7b-29" value="name" style="shape=partialRectangle;overflow=hidden;connectable=0;fillColor=none;top=0;left=0;bottom=0;right=0;align=left;spacingLeft=6;strokeColor=#DDA15E;fontColor=#FFF2CC;" parent="C-vyLk0tnHw3VtMMgP7b-27" vertex="1">
          <mxGeometry x="30" width="156.92" height="30" as="geometry" />
        </mxCell>
        <mxCell id="StOUMhEdWDE5Y-haD1ef-29" style="shape=partialRectangle;collapsible=0;dropTarget=0;pointerEvents=0;fillColor=none;points=[[0,0.5],[1,0.5]];portConstraint=eastwest;top=0;left=0;right=0;bottom=0;strokeColor=#DDA15E;fontColor=#FEFAE0;" vertex="1" parent="C-vyLk0tnHw3VtMMgP7b-23">
          <mxGeometry y="90" width="186.92" height="30" as="geometry" />
        </mxCell>
        <mxCell id="StOUMhEdWDE5Y-haD1ef-30" style="shape=partialRectangle;overflow=hidden;connectable=0;fillColor=none;top=0;left=0;bottom=0;right=0;strokeColor=#DDA15E;fontColor=#FEFAE0;" vertex="1" parent="StOUMhEdWDE5Y-haD1ef-29">
          <mxGeometry width="30" height="30" as="geometry" />
        </mxCell>
        <mxCell id="StOUMhEdWDE5Y-haD1ef-31" value="email" style="shape=partialRectangle;overflow=hidden;connectable=0;fillColor=none;top=0;left=0;bottom=0;right=0;align=left;spacingLeft=6;strokeColor=#DDA15E;fontColor=#FEFAE0;" vertex="1" parent="StOUMhEdWDE5Y-haD1ef-29">
          <mxGeometry x="30" width="156.92" height="30" as="geometry" />
        </mxCell>
        <mxCell id="StOUMhEdWDE5Y-haD1ef-32" style="shape=partialRectangle;collapsible=0;dropTarget=0;pointerEvents=0;fillColor=none;points=[[0,0.5],[1,0.5]];portConstraint=eastwest;top=0;left=0;right=0;bottom=0;strokeColor=#DDA15E;fontColor=#FEFAE0;" vertex="1" parent="C-vyLk0tnHw3VtMMgP7b-23">
          <mxGeometry y="120" width="186.92" height="30" as="geometry" />
        </mxCell>
        <mxCell id="StOUMhEdWDE5Y-haD1ef-33" style="shape=partialRectangle;overflow=hidden;connectable=0;fillColor=none;top=0;left=0;bottom=0;right=0;strokeColor=#DDA15E;fontColor=#FEFAE0;" vertex="1" parent="StOUMhEdWDE5Y-haD1ef-32">
          <mxGeometry width="30" height="30" as="geometry" />
        </mxCell>
        <mxCell id="StOUMhEdWDE5Y-haD1ef-34" value="password" style="shape=partialRectangle;overflow=hidden;connectable=0;fillColor=none;top=0;left=0;bottom=0;right=0;align=left;spacingLeft=6;strokeColor=#DDA15E;fontColor=#FEFAE0;" vertex="1" parent="StOUMhEdWDE5Y-haD1ef-32">
          <mxGeometry x="30" width="156.92" height="30" as="geometry" />
        </mxCell>
        <mxCell id="StOUMhEdWDE5Y-haD1ef-35" style="shape=partialRectangle;collapsible=0;dropTarget=0;pointerEvents=0;fillColor=none;points=[[0,0.5],[1,0.5]];portConstraint=eastwest;top=0;left=0;right=0;bottom=0;strokeColor=#DDA15E;fontColor=#FEFAE0;" vertex="1" parent="C-vyLk0tnHw3VtMMgP7b-23">
          <mxGeometry y="150" width="186.92" height="30" as="geometry" />
        </mxCell>
        <mxCell id="StOUMhEdWDE5Y-haD1ef-36" style="shape=partialRectangle;overflow=hidden;connectable=0;fillColor=none;top=0;left=0;bottom=0;right=0;strokeColor=#DDA15E;fontColor=#FEFAE0;" vertex="1" parent="StOUMhEdWDE5Y-haD1ef-35">
          <mxGeometry width="30" height="30" as="geometry" />
        </mxCell>
        <mxCell id="StOUMhEdWDE5Y-haD1ef-37" value="confirm_password" style="shape=partialRectangle;overflow=hidden;connectable=0;fillColor=none;top=0;left=0;bottom=0;right=0;align=left;spacingLeft=6;strokeColor=#DDA15E;fontColor=#FEFAE0;" vertex="1" parent="StOUMhEdWDE5Y-haD1ef-35">
          <mxGeometry x="30" width="156.92" height="30" as="geometry" />
        </mxCell>
        <mxCell id="StOUMhEdWDE5Y-haD1ef-38" style="shape=partialRectangle;collapsible=0;dropTarget=0;pointerEvents=0;fillColor=none;points=[[0,0.5],[1,0.5]];portConstraint=eastwest;top=0;left=0;right=0;bottom=0;strokeColor=#DDA15E;fontColor=#FEFAE0;" vertex="1" parent="C-vyLk0tnHw3VtMMgP7b-23">
          <mxGeometry y="180" width="186.92" height="30" as="geometry" />
        </mxCell>
        <mxCell id="StOUMhEdWDE5Y-haD1ef-39" style="shape=partialRectangle;overflow=hidden;connectable=0;fillColor=none;top=0;left=0;bottom=0;right=0;strokeColor=#DDA15E;fontColor=#FEFAE0;" vertex="1" parent="StOUMhEdWDE5Y-haD1ef-38">
          <mxGeometry width="30" height="30" as="geometry" />
        </mxCell>
        <mxCell id="StOUMhEdWDE5Y-haD1ef-40" value="created_at" style="shape=partialRectangle;overflow=hidden;connectable=0;fillColor=none;top=0;left=0;bottom=0;right=0;align=left;spacingLeft=6;strokeColor=#DDA15E;fontColor=#FEFAE0;" vertex="1" parent="StOUMhEdWDE5Y-haD1ef-38">
          <mxGeometry x="30" width="156.92" height="30" as="geometry" />
        </mxCell>
        <mxCell id="StOUMhEdWDE5Y-haD1ef-41" style="shape=partialRectangle;collapsible=0;dropTarget=0;pointerEvents=0;fillColor=none;points=[[0,0.5],[1,0.5]];portConstraint=eastwest;top=0;left=0;right=0;bottom=0;strokeColor=#DDA15E;fontColor=#FEFAE0;" vertex="1" parent="C-vyLk0tnHw3VtMMgP7b-23">
          <mxGeometry y="210" width="186.92" height="30" as="geometry" />
        </mxCell>
        <mxCell id="StOUMhEdWDE5Y-haD1ef-42" style="shape=partialRectangle;overflow=hidden;connectable=0;fillColor=none;top=0;left=0;bottom=0;right=0;strokeColor=#DDA15E;fontColor=#FEFAE0;" vertex="1" parent="StOUMhEdWDE5Y-haD1ef-41">
          <mxGeometry width="30" height="30" as="geometry" />
        </mxCell>
        <mxCell id="StOUMhEdWDE5Y-haD1ef-43" value="updated_at" style="shape=partialRectangle;overflow=hidden;connectable=0;fillColor=none;top=0;left=0;bottom=0;right=0;align=left;spacingLeft=6;strokeColor=#DDA15E;fontColor=#FEFAE0;" vertex="1" parent="StOUMhEdWDE5Y-haD1ef-41">
          <mxGeometry x="30" width="156.92" height="30" as="geometry" />
        </mxCell>
        <mxCell id="StOUMhEdWDE5Y-haD1ef-44" value="Scrap" style="shape=table;startSize=30;container=1;collapsible=1;childLayout=tableLayout;fixedRows=1;rowLines=0;fontStyle=1;align=center;resizeLast=1;fillColor=#BC6C25;strokeColor=#DDA15E;fontColor=#FEFAE0;" vertex="1" parent="1">
          <mxGeometry x="30" y="670" width="120" height="240" as="geometry" />
        </mxCell>
        <mxCell id="StOUMhEdWDE5Y-haD1ef-45" value="" style="shape=partialRectangle;collapsible=0;dropTarget=0;pointerEvents=0;fillColor=none;points=[[0,0.5],[1,0.5]];portConstraint=eastwest;top=0;left=0;right=0;bottom=1;strokeColor=#DDA15E;fontColor=#FEFAE0;" vertex="1" parent="StOUMhEdWDE5Y-haD1ef-44">
          <mxGeometry y="30" width="120" height="30" as="geometry" />
        </mxCell>
        <mxCell id="StOUMhEdWDE5Y-haD1ef-46" value="PK" style="shape=partialRectangle;overflow=hidden;connectable=0;fillColor=none;top=0;left=0;bottom=0;right=0;fontStyle=1;strokeColor=#DDA15E;fontColor=#FEFAE0;" vertex="1" parent="StOUMhEdWDE5Y-haD1ef-45">
          <mxGeometry width="30" height="30" as="geometry" />
        </mxCell>
        <mxCell id="StOUMhEdWDE5Y-haD1ef-47" value="id" style="shape=partialRectangle;overflow=hidden;connectable=0;fillColor=none;top=0;left=0;bottom=0;right=0;align=left;spacingLeft=6;fontStyle=5;strokeColor=#DDA15E;fontColor=#FEFAE0;" vertex="1" parent="StOUMhEdWDE5Y-haD1ef-45">
          <mxGeometry x="30" width="90" height="30" as="geometry" />
        </mxCell>
        <mxCell id="StOUMhEdWDE5Y-haD1ef-48" value="" style="shape=partialRectangle;collapsible=0;dropTarget=0;pointerEvents=0;fillColor=none;points=[[0,0.5],[1,0.5]];portConstraint=eastwest;top=0;left=0;right=0;bottom=0;strokeColor=#DDA15E;fontColor=#FEFAE0;" vertex="1" parent="StOUMhEdWDE5Y-haD1ef-44">
          <mxGeometry y="60" width="120" height="30" as="geometry" />
        </mxCell>
        <mxCell id="StOUMhEdWDE5Y-haD1ef-49" value="FK" style="shape=partialRectangle;overflow=hidden;connectable=0;fillColor=none;top=0;left=0;bottom=0;right=0;strokeColor=#DDA15E;fontColor=#FEFAE0;" vertex="1" parent="StOUMhEdWDE5Y-haD1ef-48">
          <mxGeometry width="30" height="30" as="geometry" />
        </mxCell>
        <mxCell id="StOUMhEdWDE5Y-haD1ef-50" value="user_id" style="shape=partialRectangle;overflow=hidden;connectable=0;fillColor=none;top=0;left=0;bottom=0;right=0;align=left;spacingLeft=6;strokeColor=#DDA15E;fontColor=#FEFAE0;" vertex="1" parent="StOUMhEdWDE5Y-haD1ef-48">
          <mxGeometry x="30" width="90" height="30" as="geometry" />
        </mxCell>
        <mxCell id="StOUMhEdWDE5Y-haD1ef-51" value="" style="shape=partialRectangle;collapsible=0;dropTarget=0;pointerEvents=0;fillColor=none;points=[[0,0.5],[1,0.5]];portConstraint=eastwest;top=0;left=0;right=0;bottom=0;strokeColor=#DDA15E;fontColor=#FEFAE0;" vertex="1" parent="StOUMhEdWDE5Y-haD1ef-44">
          <mxGeometry y="90" width="120" height="30" as="geometry" />
        </mxCell>
        <mxCell id="StOUMhEdWDE5Y-haD1ef-52" value="" style="shape=partialRectangle;overflow=hidden;connectable=0;fillColor=none;top=0;left=0;bottom=0;right=0;strokeColor=#DDA15E;fontColor=#FEFAE0;" vertex="1" parent="StOUMhEdWDE5Y-haD1ef-51">
          <mxGeometry width="30" height="30" as="geometry" />
        </mxCell>
        <mxCell id="StOUMhEdWDE5Y-haD1ef-53" value="title" style="shape=partialRectangle;overflow=hidden;connectable=0;fillColor=none;top=0;left=0;bottom=0;right=0;align=left;spacingLeft=6;strokeColor=#DDA15E;fontColor=#FEFAE0;" vertex="1" parent="StOUMhEdWDE5Y-haD1ef-51">
          <mxGeometry x="30" width="90" height="30" as="geometry" />
        </mxCell>
        <mxCell id="StOUMhEdWDE5Y-haD1ef-54" style="shape=partialRectangle;collapsible=0;dropTarget=0;pointerEvents=0;fillColor=none;points=[[0,0.5],[1,0.5]];portConstraint=eastwest;top=0;left=0;right=0;bottom=0;strokeColor=#DDA15E;fontColor=#FEFAE0;" vertex="1" parent="StOUMhEdWDE5Y-haD1ef-44">
          <mxGeometry y="120" width="120" height="30" as="geometry" />
        </mxCell>
        <mxCell id="StOUMhEdWDE5Y-haD1ef-55" style="shape=partialRectangle;overflow=hidden;connectable=0;fillColor=none;top=0;left=0;bottom=0;right=0;strokeColor=#DDA15E;fontColor=#FEFAE0;" vertex="1" parent="StOUMhEdWDE5Y-haD1ef-54">
          <mxGeometry width="30" height="30" as="geometry" />
        </mxCell>
        <mxCell id="StOUMhEdWDE5Y-haD1ef-56" value="contents    " style="shape=partialRectangle;overflow=hidden;connectable=0;fillColor=none;top=0;left=0;bottom=0;right=0;align=left;spacingLeft=6;strokeColor=#DDA15E;fontColor=#FEFAE0;" vertex="1" parent="StOUMhEdWDE5Y-haD1ef-54">
          <mxGeometry x="30" width="90" height="30" as="geometry" />
        </mxCell>
        <mxCell id="StOUMhEdWDE5Y-haD1ef-57" style="shape=partialRectangle;collapsible=0;dropTarget=0;pointerEvents=0;fillColor=none;points=[[0,0.5],[1,0.5]];portConstraint=eastwest;top=0;left=0;right=0;bottom=0;strokeColor=#DDA15E;fontColor=#FEFAE0;" vertex="1" parent="StOUMhEdWDE5Y-haD1ef-44">
          <mxGeometry y="150" width="120" height="30" as="geometry" />
        </mxCell>
        <mxCell id="StOUMhEdWDE5Y-haD1ef-58" style="shape=partialRectangle;overflow=hidden;connectable=0;fillColor=none;top=0;left=0;bottom=0;right=0;strokeColor=#DDA15E;fontColor=#FEFAE0;" vertex="1" parent="StOUMhEdWDE5Y-haD1ef-57">
          <mxGeometry width="30" height="30" as="geometry" />
        </mxCell>
        <mxCell id="StOUMhEdWDE5Y-haD1ef-59" value="like" style="shape=partialRectangle;overflow=hidden;connectable=0;fillColor=none;top=0;left=0;bottom=0;right=0;align=left;spacingLeft=6;strokeColor=#DDA15E;fontColor=#FEFAE0;" vertex="1" parent="StOUMhEdWDE5Y-haD1ef-57">
          <mxGeometry x="30" width="90" height="30" as="geometry" />
        </mxCell>
        <mxCell id="StOUMhEdWDE5Y-haD1ef-66" style="shape=partialRectangle;collapsible=0;dropTarget=0;pointerEvents=0;fillColor=none;points=[[0,0.5],[1,0.5]];portConstraint=eastwest;top=0;left=0;right=0;bottom=0;strokeColor=#DDA15E;fontColor=#FEFAE0;" vertex="1" parent="StOUMhEdWDE5Y-haD1ef-44">
          <mxGeometry y="180" width="120" height="30" as="geometry" />
        </mxCell>
        <mxCell id="StOUMhEdWDE5Y-haD1ef-67" value="" style="shape=partialRectangle;overflow=hidden;connectable=0;fillColor=none;top=0;left=0;bottom=0;right=0;strokeColor=#DDA15E;fontColor=#FEFAE0;" vertex="1" parent="StOUMhEdWDE5Y-haD1ef-66">
          <mxGeometry width="30" height="30" as="geometry" />
        </mxCell>
        <mxCell id="StOUMhEdWDE5Y-haD1ef-68" value="created_at" style="shape=partialRectangle;overflow=hidden;connectable=0;fillColor=none;top=0;left=0;bottom=0;right=0;align=left;spacingLeft=6;strokeColor=#DDA15E;fontColor=#FEFAE0;" vertex="1" parent="StOUMhEdWDE5Y-haD1ef-66">
          <mxGeometry x="30" width="90" height="30" as="geometry" />
        </mxCell>
        <mxCell id="StOUMhEdWDE5Y-haD1ef-69" style="shape=partialRectangle;collapsible=0;dropTarget=0;pointerEvents=0;fillColor=none;points=[[0,0.5],[1,0.5]];portConstraint=eastwest;top=0;left=0;right=0;bottom=0;strokeColor=#DDA15E;fontColor=#FEFAE0;" vertex="1" parent="StOUMhEdWDE5Y-haD1ef-44">
          <mxGeometry y="210" width="120" height="30" as="geometry" />
        </mxCell>
        <mxCell id="StOUMhEdWDE5Y-haD1ef-70" style="shape=partialRectangle;overflow=hidden;connectable=0;fillColor=none;top=0;left=0;bottom=0;right=0;strokeColor=#DDA15E;fontColor=#FEFAE0;" vertex="1" parent="StOUMhEdWDE5Y-haD1ef-69">
          <mxGeometry width="30" height="30" as="geometry" />
        </mxCell>
        <mxCell id="StOUMhEdWDE5Y-haD1ef-71" value="updated_at" style="shape=partialRectangle;overflow=hidden;connectable=0;fillColor=none;top=0;left=0;bottom=0;right=0;align=left;spacingLeft=6;strokeColor=#DDA15E;fontColor=#FEFAE0;" vertex="1" parent="StOUMhEdWDE5Y-haD1ef-69">
          <mxGeometry x="30" width="90" height="30" as="geometry" />
        </mxCell>
        <mxCell id="StOUMhEdWDE5Y-haD1ef-90" value="Diary" style="shape=table;startSize=30;container=1;collapsible=1;childLayout=tableLayout;fixedRows=1;rowLines=0;fontStyle=1;align=center;resizeLast=1;fillColor=#BC6C25;strokeColor=#DDA15E;fontColor=#FEFAE0;" vertex="1" parent="1">
          <mxGeometry x="680" y="320" width="110" height="270" as="geometry" />
        </mxCell>
        <mxCell id="StOUMhEdWDE5Y-haD1ef-91" value="" style="shape=partialRectangle;collapsible=0;dropTarget=0;pointerEvents=0;fillColor=none;points=[[0,0.5],[1,0.5]];portConstraint=eastwest;top=0;left=0;right=0;bottom=1;strokeColor=#DDA15E;fontColor=#FEFAE0;" vertex="1" parent="StOUMhEdWDE5Y-haD1ef-90">
          <mxGeometry y="30" width="110" height="30" as="geometry" />
        </mxCell>
        <mxCell id="StOUMhEdWDE5Y-haD1ef-92" value="PK" style="shape=partialRectangle;overflow=hidden;connectable=0;fillColor=none;top=0;left=0;bottom=0;right=0;fontStyle=1;strokeColor=#DDA15E;fontColor=#FEFAE0;" vertex="1" parent="StOUMhEdWDE5Y-haD1ef-91">
          <mxGeometry width="30" height="30" as="geometry" />
        </mxCell>
        <mxCell id="StOUMhEdWDE5Y-haD1ef-93" value="id" style="shape=partialRectangle;overflow=hidden;connectable=0;fillColor=none;top=0;left=0;bottom=0;right=0;align=left;spacingLeft=6;fontStyle=5;strokeColor=#DDA15E;fontColor=#FEFAE0;" vertex="1" parent="StOUMhEdWDE5Y-haD1ef-91">
          <mxGeometry x="30" width="80" height="30" as="geometry" />
        </mxCell>
        <mxCell id="StOUMhEdWDE5Y-haD1ef-94" value="" style="shape=partialRectangle;collapsible=0;dropTarget=0;pointerEvents=0;fillColor=none;points=[[0,0.5],[1,0.5]];portConstraint=eastwest;top=0;left=0;right=0;bottom=0;strokeColor=#DDA15E;fontColor=#FEFAE0;" vertex="1" parent="StOUMhEdWDE5Y-haD1ef-90">
          <mxGeometry y="60" width="110" height="30" as="geometry" />
        </mxCell>
        <mxCell id="StOUMhEdWDE5Y-haD1ef-95" value="FK" style="shape=partialRectangle;overflow=hidden;connectable=0;fillColor=none;top=0;left=0;bottom=0;right=0;strokeColor=#DDA15E;fontColor=#FEFAE0;" vertex="1" parent="StOUMhEdWDE5Y-haD1ef-94">
          <mxGeometry width="30" height="30" as="geometry" />
        </mxCell>
        <mxCell id="StOUMhEdWDE5Y-haD1ef-96" value="user_id" style="shape=partialRectangle;overflow=hidden;connectable=0;fillColor=none;top=0;left=0;bottom=0;right=0;align=left;spacingLeft=6;strokeColor=#DDA15E;fontColor=#FEFAE0;" vertex="1" parent="StOUMhEdWDE5Y-haD1ef-94">
          <mxGeometry x="30" width="80" height="30" as="geometry" />
        </mxCell>
        <mxCell id="StOUMhEdWDE5Y-haD1ef-97" value="" style="shape=partialRectangle;collapsible=0;dropTarget=0;pointerEvents=0;fillColor=none;points=[[0,0.5],[1,0.5]];portConstraint=eastwest;top=0;left=0;right=0;bottom=0;strokeColor=#DDA15E;fontColor=#FEFAE0;" vertex="1" parent="StOUMhEdWDE5Y-haD1ef-90">
          <mxGeometry y="90" width="110" height="30" as="geometry" />
        </mxCell>
        <mxCell id="StOUMhEdWDE5Y-haD1ef-98" value="" style="shape=partialRectangle;overflow=hidden;connectable=0;fillColor=none;top=0;left=0;bottom=0;right=0;strokeColor=#DDA15E;fontColor=#FEFAE0;" vertex="1" parent="StOUMhEdWDE5Y-haD1ef-97">
          <mxGeometry width="30" height="30" as="geometry" />
        </mxCell>
        <mxCell id="StOUMhEdWDE5Y-haD1ef-99" value="title" style="shape=partialRectangle;overflow=hidden;connectable=0;fillColor=none;top=0;left=0;bottom=0;right=0;align=left;spacingLeft=6;strokeColor=#DDA15E;fontColor=#FEFAE0;" vertex="1" parent="StOUMhEdWDE5Y-haD1ef-97">
          <mxGeometry x="30" width="80" height="30" as="geometry" />
        </mxCell>
        <mxCell id="StOUMhEdWDE5Y-haD1ef-100" style="shape=partialRectangle;collapsible=0;dropTarget=0;pointerEvents=0;fillColor=none;points=[[0,0.5],[1,0.5]];portConstraint=eastwest;top=0;left=0;right=0;bottom=0;strokeColor=#DDA15E;fontColor=#FEFAE0;" vertex="1" parent="StOUMhEdWDE5Y-haD1ef-90">
          <mxGeometry y="120" width="110" height="30" as="geometry" />
        </mxCell>
        <mxCell id="StOUMhEdWDE5Y-haD1ef-101" style="shape=partialRectangle;overflow=hidden;connectable=0;fillColor=none;top=0;left=0;bottom=0;right=0;strokeColor=#DDA15E;fontColor=#FEFAE0;" vertex="1" parent="StOUMhEdWDE5Y-haD1ef-100">
          <mxGeometry width="30" height="30" as="geometry" />
        </mxCell>
        <mxCell id="StOUMhEdWDE5Y-haD1ef-102" value="contents    " style="shape=partialRectangle;overflow=hidden;connectable=0;fillColor=none;top=0;left=0;bottom=0;right=0;align=left;spacingLeft=6;strokeColor=#DDA15E;fontColor=#FEFAE0;" vertex="1" parent="StOUMhEdWDE5Y-haD1ef-100">
          <mxGeometry x="30" width="80" height="30" as="geometry" />
        </mxCell>
        <mxCell id="StOUMhEdWDE5Y-haD1ef-120" style="shape=partialRectangle;collapsible=0;dropTarget=0;pointerEvents=0;fillColor=none;points=[[0,0.5],[1,0.5]];portConstraint=eastwest;top=0;left=0;right=0;bottom=0;strokeColor=#DDA15E;fontColor=#FEFAE0;" vertex="1" parent="StOUMhEdWDE5Y-haD1ef-90">
          <mxGeometry y="150" width="110" height="30" as="geometry" />
        </mxCell>
        <mxCell id="StOUMhEdWDE5Y-haD1ef-121" style="shape=partialRectangle;overflow=hidden;connectable=0;fillColor=none;top=0;left=0;bottom=0;right=0;strokeColor=#DDA15E;fontColor=#FEFAE0;" vertex="1" parent="StOUMhEdWDE5Y-haD1ef-120">
          <mxGeometry width="30" height="30" as="geometry" />
        </mxCell>
        <mxCell id="StOUMhEdWDE5Y-haD1ef-122" value="tags" style="shape=partialRectangle;overflow=hidden;connectable=0;fillColor=none;top=0;left=0;bottom=0;right=0;align=left;spacingLeft=6;strokeColor=#DDA15E;fontColor=#FEFAE0;" vertex="1" parent="StOUMhEdWDE5Y-haD1ef-120">
          <mxGeometry x="30" width="80" height="30" as="geometry" />
        </mxCell>
        <mxCell id="StOUMhEdWDE5Y-haD1ef-103" style="shape=partialRectangle;collapsible=0;dropTarget=0;pointerEvents=0;fillColor=none;points=[[0,0.5],[1,0.5]];portConstraint=eastwest;top=0;left=0;right=0;bottom=0;strokeColor=#DDA15E;fontColor=#FEFAE0;" vertex="1" parent="StOUMhEdWDE5Y-haD1ef-90">
          <mxGeometry y="180" width="110" height="30" as="geometry" />
        </mxCell>
        <mxCell id="StOUMhEdWDE5Y-haD1ef-104" style="shape=partialRectangle;overflow=hidden;connectable=0;fillColor=none;top=0;left=0;bottom=0;right=0;strokeColor=#DDA15E;fontColor=#FEFAE0;" vertex="1" parent="StOUMhEdWDE5Y-haD1ef-103">
          <mxGeometry width="30" height="30" as="geometry" />
        </mxCell>
        <mxCell id="StOUMhEdWDE5Y-haD1ef-105" value="like" style="shape=partialRectangle;overflow=hidden;connectable=0;fillColor=none;top=0;left=0;bottom=0;right=0;align=left;spacingLeft=6;strokeColor=#DDA15E;fontColor=#FEFAE0;" vertex="1" parent="StOUMhEdWDE5Y-haD1ef-103">
          <mxGeometry x="30" width="80" height="30" as="geometry" />
        </mxCell>
        <mxCell id="StOUMhEdWDE5Y-haD1ef-106" style="shape=partialRectangle;collapsible=0;dropTarget=0;pointerEvents=0;fillColor=none;points=[[0,0.5],[1,0.5]];portConstraint=eastwest;top=0;left=0;right=0;bottom=0;strokeColor=#DDA15E;fontColor=#FEFAE0;" vertex="1" parent="StOUMhEdWDE5Y-haD1ef-90">
          <mxGeometry y="210" width="110" height="30" as="geometry" />
        </mxCell>
        <mxCell id="StOUMhEdWDE5Y-haD1ef-107" value="" style="shape=partialRectangle;overflow=hidden;connectable=0;fillColor=none;top=0;left=0;bottom=0;right=0;strokeColor=#DDA15E;fontColor=#FEFAE0;" vertex="1" parent="StOUMhEdWDE5Y-haD1ef-106">
          <mxGeometry width="30" height="30" as="geometry" />
        </mxCell>
        <mxCell id="StOUMhEdWDE5Y-haD1ef-108" value="created_at" style="shape=partialRectangle;overflow=hidden;connectable=0;fillColor=none;top=0;left=0;bottom=0;right=0;align=left;spacingLeft=6;strokeColor=#DDA15E;fontColor=#FEFAE0;" vertex="1" parent="StOUMhEdWDE5Y-haD1ef-106">
          <mxGeometry x="30" width="80" height="30" as="geometry" />
        </mxCell>
        <mxCell id="StOUMhEdWDE5Y-haD1ef-109" style="shape=partialRectangle;collapsible=0;dropTarget=0;pointerEvents=0;fillColor=none;points=[[0,0.5],[1,0.5]];portConstraint=eastwest;top=0;left=0;right=0;bottom=0;strokeColor=#DDA15E;fontColor=#FEFAE0;" vertex="1" parent="StOUMhEdWDE5Y-haD1ef-90">
          <mxGeometry y="240" width="110" height="30" as="geometry" />
        </mxCell>
        <mxCell id="StOUMhEdWDE5Y-haD1ef-110" style="shape=partialRectangle;overflow=hidden;connectable=0;fillColor=none;top=0;left=0;bottom=0;right=0;strokeColor=#DDA15E;fontColor=#FEFAE0;" vertex="1" parent="StOUMhEdWDE5Y-haD1ef-109">
          <mxGeometry width="30" height="30" as="geometry" />
        </mxCell>
        <mxCell id="StOUMhEdWDE5Y-haD1ef-111" value="updated_at" style="shape=partialRectangle;overflow=hidden;connectable=0;fillColor=none;top=0;left=0;bottom=0;right=0;align=left;spacingLeft=6;strokeColor=#DDA15E;fontColor=#FEFAE0;" vertex="1" parent="StOUMhEdWDE5Y-haD1ef-109">
          <mxGeometry x="30" width="80" height="30" as="geometry" />
        </mxCell>
        <mxCell id="StOUMhEdWDE5Y-haD1ef-115" style="edgeStyle=orthogonalEdgeStyle;curved=0;rounded=1;sketch=0;orthogonalLoop=1;jettySize=auto;html=1;entryX=1;entryY=0.5;entryDx=0;entryDy=0;fontColor=#FFF2CC;endArrow=ERmany;endFill=0;strokeColor=#DDA15E;fillColor=#BC6C25;" edge="1" parent="1" source="C-vyLk0tnHw3VtMMgP7b-24" target="StOUMhEdWDE5Y-haD1ef-112">
          <mxGeometry relative="1" as="geometry" />
        </mxCell>
        <mxCell id="StOUMhEdWDE5Y-haD1ef-119" style="edgeStyle=orthogonalEdgeStyle;curved=0;rounded=1;sketch=0;orthogonalLoop=1;jettySize=auto;html=1;entryX=1;entryY=0.5;entryDx=0;entryDy=0;fontColor=#FFF2CC;endArrow=ERmany;endFill=0;strokeColor=#DDA15E;fillColor=#BC6C25;" edge="1" parent="1" source="C-vyLk0tnHw3VtMMgP7b-24" target="StOUMhEdWDE5Y-haD1ef-48">
          <mxGeometry relative="1" as="geometry" />
        </mxCell>
        <mxCell id="StOUMhEdWDE5Y-haD1ef-123" value="Profile" style="shape=table;startSize=30;container=1;collapsible=1;childLayout=tableLayout;fixedRows=1;rowLines=0;fontStyle=1;align=center;resizeLast=1;fillColor=#BC6C25;strokeColor=#DDA15E;fontColor=#FEFAE0;" vertex="1" parent="1">
          <mxGeometry x="520" y="70" width="120" height="210" as="geometry" />
        </mxCell>
        <mxCell id="StOUMhEdWDE5Y-haD1ef-124" value="" style="shape=partialRectangle;collapsible=0;dropTarget=0;pointerEvents=0;fillColor=none;points=[[0,0.5],[1,0.5]];portConstraint=eastwest;top=0;left=0;right=0;bottom=1;strokeColor=#DDA15E;fontColor=#FEFAE0;" vertex="1" parent="StOUMhEdWDE5Y-haD1ef-123">
          <mxGeometry y="30" width="120" height="30" as="geometry" />
        </mxCell>
        <mxCell id="StOUMhEdWDE5Y-haD1ef-125" value="PK" style="shape=partialRectangle;overflow=hidden;connectable=0;fillColor=none;top=0;left=0;bottom=0;right=0;fontStyle=1;strokeColor=#DDA15E;fontColor=#FEFAE0;" vertex="1" parent="StOUMhEdWDE5Y-haD1ef-124">
          <mxGeometry width="30" height="30" as="geometry" />
        </mxCell>
        <mxCell id="StOUMhEdWDE5Y-haD1ef-126" value="id" style="shape=partialRectangle;overflow=hidden;connectable=0;fillColor=none;top=0;left=0;bottom=0;right=0;align=left;spacingLeft=6;fontStyle=5;strokeColor=#DDA15E;fontColor=#FEFAE0;" vertex="1" parent="StOUMhEdWDE5Y-haD1ef-124">
          <mxGeometry x="30" width="90" height="30" as="geometry" />
        </mxCell>
        <mxCell id="StOUMhEdWDE5Y-haD1ef-127" value="" style="shape=partialRectangle;collapsible=0;dropTarget=0;pointerEvents=0;fillColor=none;points=[[0,0.5],[1,0.5]];portConstraint=eastwest;top=0;left=0;right=0;bottom=0;strokeColor=#DDA15E;fontColor=#FEFAE0;" vertex="1" parent="StOUMhEdWDE5Y-haD1ef-123">
          <mxGeometry y="60" width="120" height="30" as="geometry" />
        </mxCell>
        <mxCell id="StOUMhEdWDE5Y-haD1ef-128" value="FK" style="shape=partialRectangle;overflow=hidden;connectable=0;fillColor=none;top=0;left=0;bottom=0;right=0;strokeColor=#DDA15E;fontColor=#FEFAE0;" vertex="1" parent="StOUMhEdWDE5Y-haD1ef-127">
          <mxGeometry width="30" height="30" as="geometry" />
        </mxCell>
        <mxCell id="StOUMhEdWDE5Y-haD1ef-129" value="user_id" style="shape=partialRectangle;overflow=hidden;connectable=0;fillColor=none;top=0;left=0;bottom=0;right=0;align=left;spacingLeft=6;strokeColor=#DDA15E;fontColor=#FEFAE0;" vertex="1" parent="StOUMhEdWDE5Y-haD1ef-127">
          <mxGeometry x="30" width="90" height="30" as="geometry" />
        </mxCell>
        <mxCell id="StOUMhEdWDE5Y-haD1ef-130" value="" style="shape=partialRectangle;collapsible=0;dropTarget=0;pointerEvents=0;fillColor=none;points=[[0,0.5],[1,0.5]];portConstraint=eastwest;top=0;left=0;right=0;bottom=0;strokeColor=#DDA15E;fontColor=#FEFAE0;" vertex="1" parent="StOUMhEdWDE5Y-haD1ef-123">
          <mxGeometry y="90" width="120" height="30" as="geometry" />
        </mxCell>
        <mxCell id="StOUMhEdWDE5Y-haD1ef-131" value="" style="shape=partialRectangle;overflow=hidden;connectable=0;fillColor=none;top=0;left=0;bottom=0;right=0;strokeColor=#DDA15E;fontColor=#FEFAE0;" vertex="1" parent="StOUMhEdWDE5Y-haD1ef-130">
          <mxGeometry width="30" height="30" as="geometry" />
        </mxCell>
        <mxCell id="StOUMhEdWDE5Y-haD1ef-132" value="user_name" style="shape=partialRectangle;overflow=hidden;connectable=0;fillColor=none;top=0;left=0;bottom=0;right=0;align=left;spacingLeft=6;strokeColor=#DDA15E;fontColor=#FEFAE0;" vertex="1" parent="StOUMhEdWDE5Y-haD1ef-130">
          <mxGeometry x="30" width="90" height="30" as="geometry" />
        </mxCell>
        <mxCell id="StOUMhEdWDE5Y-haD1ef-133" style="shape=partialRectangle;collapsible=0;dropTarget=0;pointerEvents=0;fillColor=none;points=[[0,0.5],[1,0.5]];portConstraint=eastwest;top=0;left=0;right=0;bottom=0;strokeColor=#DDA15E;fontColor=#FEFAE0;" vertex="1" parent="StOUMhEdWDE5Y-haD1ef-123">
          <mxGeometry y="120" width="120" height="30" as="geometry" />
        </mxCell>
        <mxCell id="StOUMhEdWDE5Y-haD1ef-134" style="shape=partialRectangle;overflow=hidden;connectable=0;fillColor=none;top=0;left=0;bottom=0;right=0;strokeColor=#DDA15E;fontColor=#FEFAE0;" vertex="1" parent="StOUMhEdWDE5Y-haD1ef-133">
          <mxGeometry width="30" height="30" as="geometry" />
        </mxCell>
        <mxCell id="StOUMhEdWDE5Y-haD1ef-135" value="introduce" style="shape=partialRectangle;overflow=hidden;connectable=0;fillColor=none;top=0;left=0;bottom=0;right=0;align=left;spacingLeft=6;strokeColor=#DDA15E;fontColor=#FEFAE0;" vertex="1" parent="StOUMhEdWDE5Y-haD1ef-133">
          <mxGeometry x="30" width="90" height="30" as="geometry" />
        </mxCell>
        <mxCell id="StOUMhEdWDE5Y-haD1ef-139" style="shape=partialRectangle;collapsible=0;dropTarget=0;pointerEvents=0;fillColor=none;points=[[0,0.5],[1,0.5]];portConstraint=eastwest;top=0;left=0;right=0;bottom=0;strokeColor=#DDA15E;fontColor=#FEFAE0;" vertex="1" parent="StOUMhEdWDE5Y-haD1ef-123">
          <mxGeometry y="150" width="120" height="30" as="geometry" />
        </mxCell>
        <mxCell id="StOUMhEdWDE5Y-haD1ef-140" value="" style="shape=partialRectangle;overflow=hidden;connectable=0;fillColor=none;top=0;left=0;bottom=0;right=0;strokeColor=#DDA15E;fontColor=#FEFAE0;" vertex="1" parent="StOUMhEdWDE5Y-haD1ef-139">
          <mxGeometry width="30" height="30" as="geometry" />
        </mxCell>
        <mxCell id="StOUMhEdWDE5Y-haD1ef-141" value="created_at" style="shape=partialRectangle;overflow=hidden;connectable=0;fillColor=none;top=0;left=0;bottom=0;right=0;align=left;spacingLeft=6;strokeColor=#DDA15E;fontColor=#FEFAE0;" vertex="1" parent="StOUMhEdWDE5Y-haD1ef-139">
          <mxGeometry x="30" width="90" height="30" as="geometry" />
        </mxCell>
        <mxCell id="StOUMhEdWDE5Y-haD1ef-142" style="shape=partialRectangle;collapsible=0;dropTarget=0;pointerEvents=0;fillColor=none;points=[[0,0.5],[1,0.5]];portConstraint=eastwest;top=0;left=0;right=0;bottom=0;strokeColor=#DDA15E;fontColor=#FEFAE0;" vertex="1" parent="StOUMhEdWDE5Y-haD1ef-123">
          <mxGeometry y="180" width="120" height="30" as="geometry" />
        </mxCell>
        <mxCell id="StOUMhEdWDE5Y-haD1ef-143" style="shape=partialRectangle;overflow=hidden;connectable=0;fillColor=none;top=0;left=0;bottom=0;right=0;strokeColor=#DDA15E;fontColor=#FEFAE0;" vertex="1" parent="StOUMhEdWDE5Y-haD1ef-142">
          <mxGeometry width="30" height="30" as="geometry" />
        </mxCell>
        <mxCell id="StOUMhEdWDE5Y-haD1ef-144" value="updated_at" style="shape=partialRectangle;overflow=hidden;connectable=0;fillColor=none;top=0;left=0;bottom=0;right=0;align=left;spacingLeft=6;strokeColor=#DDA15E;fontColor=#FEFAE0;" vertex="1" parent="StOUMhEdWDE5Y-haD1ef-142">
          <mxGeometry x="30" width="90" height="30" as="geometry" />
        </mxCell>
        <mxCell id="StOUMhEdWDE5Y-haD1ef-146" style="edgeStyle=orthogonalEdgeStyle;curved=0;rounded=1;sketch=0;orthogonalLoop=1;jettySize=auto;html=1;entryX=0;entryY=0.5;entryDx=0;entryDy=0;fontColor=#FFF2CC;endArrow=classic;endFill=1;strokeColor=#DDA15E;fillColor=#BC6C25;" edge="1" parent="1" source="C-vyLk0tnHw3VtMMgP7b-24" target="StOUMhEdWDE5Y-haD1ef-127">
          <mxGeometry relative="1" as="geometry" />
        </mxCell>
        <mxCell id="StOUMhEdWDE5Y-haD1ef-147" style="edgeStyle=orthogonalEdgeStyle;curved=0;rounded=1;sketch=0;orthogonalLoop=1;jettySize=auto;html=1;fontColor=#FFF2CC;endArrow=ERmany;endFill=0;strokeColor=#DDA15E;fillColor=#BC6C25;entryX=0;entryY=0.5;entryDx=0;entryDy=0;" edge="1" parent="1" source="C-vyLk0tnHw3VtMMgP7b-24" target="StOUMhEdWDE5Y-haD1ef-94">
          <mxGeometry relative="1" as="geometry">
            <mxPoint x="610" y="455" as="targetPoint" />
          </mxGeometry>
        </mxCell>
      </root>
    </mxGraphModel>
  </diagram>
</mxfile>
